<?xml version="1.0" standalone="no"?>
<!DOCTYPE svg PUBLIC "-//W3C//DTD SVG 20010904//EN"
 "http://www.w3.org/TR/2001/REC-SVG-20010904/DTD/svg10.dtd">
<svg version="1.0" xmlns="http://www.w3.org/2000/svg"
 width="2112.000000pt" height="2112.000000pt" viewBox="0 0 2112.000000 2112.000000"
 preserveAspectRatio="xMidYMid meet">
<metadata>
Created by potrace 1.14, written by Peter Selinger 2001-2017
</metadata>
<g transform="translate(0.000000,2112.000000) scale(0.100000,-0.100000)"
fill="#000000" stroke="none">
<path d="M4390 13500 c-68 -14 -172 -59 -219 -94 -22 -17 -124 -119 -142 -143
-25 -32 -79 -148 -79 -170 0 -11 -3 -23 -7 -26 -14 -15 -22 -181 -11 -247 13
-79 18 -99 39 -152 38 -98 112 -192 196 -250 50 -34 140 -75 180 -83 16 -3 42
-8 58 -11 37 -8 181 -9 215 -2 146 33 212 68 305 162 117 118 173 255 173 425
0 50 -6 117 -14 150 -13 60 -53 153 -66 159 -5 2 -8 9 -8 16 0 19 -139 158
-188 189 -41 26 -126 64 -167 74 -40 10 -221 12 -265 3z"/>
<path d="M943 12790 c-17 -5 -18 -28 -18 -460 l0 -455 -370 -1 c-204 -1 -373
-2 -377 -3 -4 0 -6 -191 -5 -423 l2 -423 375 -1 375 -1 1 -1089 c1 -599 4
-1098 7 -1109 2 -11 8 -45 12 -75 25 -192 125 -424 240 -557 137 -158 316
-278 510 -342 39 -13 77 -26 85 -29 21 -7 29 -9 155 -31 89 -15 146 -18 300
-16 182 4 206 5 285 20 89 17 89 17 150 34 108 29 204 67 328 128 72 36 132
68 132 72 0 3 12 12 28 19 15 7 35 18 45 26 20 15 25 -4 -118 411 -48 138 -99
285 -114 329 -23 67 -29 76 -40 62 -16 -20 -150 -105 -219 -140 -119 -60 -265
-96 -397 -98 -19 0 -120 11 -144 16 -41 9 -145 63 -174 91 -56 53 -98 137
-114 227 -4 24 -7 495 -8 1047 l0 1004 587 -1 c433 0 588 3 591 12 3 10 2 823
-2 836 0 3 -266 5 -589 5 l-589 0 -1 435 c0 239 -1 446 -1 460 l-1 25 -454 0
c-250 0 -463 -2 -473 -5z"/>
<path d="M8058 11988 c-144 -14 -162 -17 -282 -53 -118 -34 -251 -95 -344
-157 -24 -15 -46 -28 -49 -28 -3 0 -19 -12 -37 -26 -17 -14 -46 -37 -64 -52
-19 -15 -67 -60 -108 -101 l-74 -74 0 189 0 189 -455 0 c-298 0 -456 -3 -457
-10 0 -5 -2 -902 -3 -1992 l-1 -1983 473 0 c444 0 473 1 473 18 1 9 2 553 4
1207 1 655 5 1201 9 1215 4 13 9 42 13 64 24 166 136 381 259 499 92 88 250
173 342 183 12 1 27 5 32 9 6 3 62 7 124 7 198 2 333 -48 452 -167 38 -39 79
-89 90 -110 11 -22 25 -47 31 -55 16 -21 72 -190 79 -237 3 -21 8 -56 11 -78
11 -76 11 -124 13 -1337 l1 -1218 474 0 473 0 0 1158 c1 1281 1 1278 48 1447
14 50 27 95 28 101 2 7 8 18 14 25 6 8 12 17 13 21 10 62 118 213 201 283 76
64 216 134 299 149 19 3 46 9 60 12 14 3 74 5 133 5 234 0 401 -85 520 -263
20 -31 37 -59 37 -62 0 -3 12 -31 26 -62 14 -31 27 -65 30 -75 2 -10 6 -29 9
-41 12 -51 24 -116 31 -173 4 -33 8 -615 8 -1292 l1 -1233 478 0 477 0 0 53
c3 270 -1 2639 -4 2662 -2 17 -7 59 -11 95 -4 36 -9 74 -11 85 -4 21 -11 57
-19 103 -5 30 -56 198 -73 243 -119 306 -380 591 -662 722 -125 58 -298 110
-410 122 -25 3 -70 8 -100 12 -73 8 -302 8 -365 -1 -83 -11 -121 -17 -185 -30
-102 -22 -349 -117 -358 -138 -2 -5 -9 -8 -17 -8 -15 0 -152 -88 -215 -139
-59 -47 -168 -156 -204 -203 -16 -21 -31 -38 -35 -38 -3 0 -30 31 -58 68 -50
66 -182 199 -233 234 -14 10 -44 31 -66 47 -107 76 -361 184 -429 182 -2 0
-18 4 -35 9 -71 20 -286 30 -402 18z"/>
<path d="M14157 11994 c-1 -1 -44 -4 -94 -8 -99 -6 -138 -11 -218 -26 -27 -5
-61 -12 -75 -14 -14 -3 -59 -14 -100 -26 -41 -11 -80 -22 -87 -23 -7 -2 -16
-6 -19 -10 -4 -4 -14 -7 -23 -7 -27 0 -224 -94 -302 -145 -110 -71 -195 -145
-293 -255 -80 -90 -174 -293 -193 -415 -2 -16 -8 -48 -13 -69 -16 -74 -1 -426
20 -465 4 -9 10 -31 13 -49 8 -49 56 -170 95 -237 33 -56 100 -142 148 -190
31 -30 135 -110 169 -129 17 -9 57 -33 90 -52 128 -74 336 -164 535 -231 58
-19 110 -36 115 -37 6 -2 30 -8 55 -15 25 -7 52 -15 60 -17 250 -57 555 -157
706 -230 155 -74 214 -133 248 -248 14 -47 15 -183 1 -231 -13 -48 -63 -125
-103 -161 -39 -35 -161 -102 -200 -109 -12 -2 -26 -6 -31 -9 -5 -3 -24 -8 -42
-11 -19 -3 -58 -9 -87 -14 -52 -8 -316 -6 -382 3 -298 40 -549 208 -682 456
-32 60 -61 132 -63 155 -1 18 -106 -2 -180 -35 -18 -8 -144 -50 -170 -57 -5
-1 -50 -16 -100 -34 -49 -17 -94 -32 -100 -33 -5 -2 -17 -6 -25 -9 -8 -3 -51
-18 -95 -32 -44 -15 -87 -29 -95 -32 -8 -3 -21 -7 -28 -9 -24 -5 -25 -12 -3
-86 53 -177 150 -364 250 -483 90 -105 259 -257 351 -313 56 -34 277 -142 299
-147 12 -2 27 -7 34 -12 6 -4 17 -8 22 -9 6 -1 43 -12 84 -24 41 -12 82 -24
92 -26 53 -12 68 -15 119 -24 100 -17 110 -19 188 -27 99 -10 475 -10 571 1
68 7 184 26 256 41 17 3 71 17 120 31 50 15 95 27 100 28 6 1 27 10 49 19 21
9 40 17 43 17 2 0 25 10 51 22 26 12 50 21 55 20 4 -1 7 3 7 8 0 6 5 10 12 10
6 0 44 19 82 42 284 167 481 411 557 688 28 101 34 153 34 300 -1 149 -7 206
-36 325 -21 83 -104 265 -139 303 -11 11 -20 24 -20 27 0 13 -109 126 -191
198 -96 85 -252 180 -364 221 -27 10 -63 24 -80 31 -33 14 -65 26 -80 31 -28
9 -112 37 -125 42 -8 3 -17 6 -20 7 -3 1 -12 4 -20 7 -8 4 -24 8 -35 11 -11 3
-60 17 -110 32 -49 15 -94 28 -100 30 -39 9 -72 18 -85 22 -8 3 -24 7 -35 9
-11 2 -36 8 -55 14 -51 14 -253 71 -265 74 -5 2 -17 5 -25 8 -8 3 -51 17 -95
31 -212 67 -305 109 -366 164 -103 93 -127 214 -72 365 20 55 101 145 140 154
13 4 23 10 23 14 0 15 155 57 250 67 55 6 274 6 315 -1 126 -18 234 -61 345
-134 76 -51 112 -83 180 -162 24 -28 110 -199 110 -219 0 -7 6 -10 13 -8 20 9
211 69 222 71 6 0 12 3 15 6 3 3 39 16 80 29 41 12 91 29 111 36 20 8 39 11
43 8 3 -4 6 -2 6 4 0 5 6 10 13 10 11 0 181 55 217 70 8 3 20 7 27 9 28 5 119
37 126 43 8 8 -28 119 -66 204 -15 31 -27 59 -27 62 0 3 -4 11 -10 18 -6 6
-29 41 -51 77 -23 36 -64 92 -93 125 -58 68 -177 185 -188 185 -5 0 -17 8 -27
18 -53 47 -175 121 -286 173 -81 37 -265 103 -319 113 -11 2 -55 11 -96 20
-41 8 -97 17 -125 20 -27 3 -75 8 -105 12 -47 5 -348 12 -353 8z"/>
<path d="M18507 11994 c-1 -1 -40 -4 -87 -8 -47 -3 -112 -10 -145 -15 -33 -5
-76 -12 -96 -15 -20 -3 -42 -8 -50 -10 -8 -3 -25 -8 -39 -10 -67 -13 -182 -47
-212 -62 -15 -8 -28 -12 -28 -10 0 3 -30 -8 -66 -24 -36 -17 -72 -30 -79 -30
-7 0 -18 -7 -25 -15 -7 -9 -15 -14 -17 -11 -3 2 -32 -11 -65 -30 -33 -19 -64
-34 -68 -34 -5 0 -10 -5 -12 -11 -2 -5 -10 -11 -19 -12 -8 -2 -29 -13 -46 -25
-17 -12 -34 -22 -37 -22 -3 0 -14 -6 -23 -14 -10 -8 -58 -45 -108 -82 -90 -67
-305 -273 -305 -292 0 -6 -4 -12 -8 -14 -35 -14 -208 -284 -278 -433 -37 -79
-99 -242 -109 -285 -2 -8 -13 -51 -25 -95 -12 -44 -23 -91 -24 -105 -3 -22
-12 -83 -21 -131 -24 -126 -24 -510 0 -639 1 -8 6 -35 10 -60 4 -25 9 -54 12
-65 2 -11 6 -31 9 -45 2 -14 7 -36 11 -50 3 -14 7 -29 8 -35 9 -37 27 -104 35
-125 30 -83 84 -218 93 -235 6 -11 12 -22 12 -25 4 -23 122 -224 169 -286 17
-23 38 -52 46 -64 70 -104 288 -312 440 -420 30 -22 60 -44 67 -50 7 -5 15
-10 19 -10 3 0 18 -8 32 -19 40 -28 199 -106 307 -151 60 -25 266 -88 310 -95
27 -5 135 -24 163 -30 140 -27 586 -27 722 0 14 3 41 8 60 11 157 24 429 107
495 151 11 7 27 13 37 13 9 0 23 6 30 14 8 7 24 16 36 20 27 9 180 101 252
152 124 87 236 188 370 334 18 19 118 153 146 194 131 196 243 464 289 689 2
10 6 26 9 35 3 9 8 37 11 61 3 23 7 46 9 50 19 33 28 497 12 631 -5 41 -10 87
-10 103 -1 15 -5 27 -10 27 -5 0 -7 2 -4 6 5 4 -19 123 -37 187 -3 9 -7 26
-10 38 -7 34 -16 63 -25 84 -5 11 -18 47 -30 80 -41 115 -187 394 -211 403 -5
2 -9 9 -9 16 0 7 -11 25 -25 40 -14 15 -25 30 -25 34 0 4 -10 19 -23 33 -12
15 -34 41 -49 59 -44 53 -157 167 -210 213 -28 23 -64 54 -82 69 -17 15 -34
28 -38 28 -4 0 -13 6 -20 13 -12 12 -95 66 -171 111 -224 133 -510 237 -747
271 -19 3 -48 7 -65 10 -87 13 -417 28 -428 19z m268 -1577 c222 -53 399 -257
421 -488 4 -35 6 -68 6 -74 -10 -154 -69 -285 -172 -383 -65 -63 -69 -66 -136
-100 -153 -76 -327 -76 -484 1 -143 70 -273 244 -296 397 -13 85 -10 149 11
252 19 95 112 231 207 303 36 28 142 77 194 90 55 13 194 15 249 2z"/>
<path d="M4039 11875 c-1 0 -2 -897 -3 -1993 l-1 -1992 475 2 474 3 1 1978 c0
1089 -3 1984 -7 1990 -5 9 -132 12 -473 12 -256 0 -466 0 -466 0z"/>
</g>
</svg>
